<svg xmlns="http://www.w3.org/2000/svg" aria-hidden="true" style="width:0;height:0;position:absolute;overflow:hidden"><defs><symbol id="icon-heroicons-solid_shopping-cart" viewBox="0 0 32 32"><path d="M4.8 1.6a1.6 1.6 0 0 0 0 3.2h1.952l.488 1.955.016.067 2.173 8.688L8 16.937c-2.016 2.016-.589 5.462 2.262 5.462H24a1.6 1.6 0 0 0 0-3.2H10.262l1.6-1.6H22.4a1.602 1.602 0 0 0 1.431-.884l4.8-9.6A1.602 1.602 0 0 0 27.2 4.8H10.048l-.496-1.989A1.601 1.601 0 0 0 8 1.599H4.8zm20.8 24.8a2.4 2.4 0 1 1-4.799 0 2.4 2.4 0 0 1 4.799 0zm-15.2 2.4a2.4 2.4 0 1 0 0-4.799 2.4 2.4 0 0 0 0 4.799z"/></symbol><symbol id="icon-check" viewBox="0 0 32 32"><path fill="none" stroke="#e8e8e2" style="stroke:var(--color1,#e8e8e2)" stroke-linejoin="round" stroke-linecap="round" stroke-width="3.556" d="M26.667 8 12 22.667 5.333 16"/></symbol></defs></svg>